PathFileType	4	(X/Y/Z)	D:\TRACE\spot_10-12-23\spot_arm_body_motion_1_9-platform.trc
DataRate	CameraRate	NumFrames	NumMarkers	Units	OrigDataRate	OrigDataStartFrame	OrigNumFrames
100.00	100.00	      25	5	mm	100.00	876	      7000
Frame#	Time	Left_Front			Right_Front			Left_Aft			Right_Aft			Post			
		X1	Y1	Z1	X2	Y2	Z2	X3	Y3	Z3	X4	Y4	Z4	X5	Y5	Z5	

876	8.750	-756.98749	16.12126	-650.35663	810.41119	14.30664	-625.75397	-688.31097	8.61482	488.21198	718.36005	6.28091	590.01617	30.50541	746.31433	-956.19244	
877	8.760	-756.21155	15.98495	-650.34198	811.30957	13.97677	-625.84576	-687.46069	8.95839	488.18982	719.45386	6.62938	590.22357	31.45657	745.74652	-956.74957	
878	8.770	-755.04950	15.33663	-650.44476	812.10370	13.56518	-625.87317	-686.59094	9.16405	488.18420	720.24219	6.93913	590.33887	32.19836	745.32867	-957.12836	
879	8.780	-754.32428	14.93074	-650.53717	813.02429	13.27936	-625.98206	-685.62457	9.39055	488.11734	721.20782	7.38548	590.20636	32.52762	815.97522	-970.02765	
880	8.790	-753.55396	14.56656	-650.51520	813.87506	13.00750	-626.09406	-684.94672	9.66395	487.94623	721.88110	7.66248	589.93927	33.65444	797.35986	-967.11432	
881	8.800	-752.60455	14.14369	-650.75238	814.78625	12.53980	-626.15881	-683.91107	9.82425	487.98984	722.86188	7.80234	590.03198	35.01106	743.78217	-957.97748	
882	8.810	-751.59607	13.74221	-650.60754	815.39386	12.00896	-626.24103	-683.09845	10.07509	487.82349	723.66888	8.26326	590.13599	35.86869	743.30560	-958.28497	
883	8.820	-751.07343	13.55827	-650.60968	816.24005	11.61763	-626.37830	-682.20520	10.39302	487.79398	724.62366	8.64253	590.01208	36.75078	742.65503	-958.78259	
884	8.830	-750.03558	12.95812	-650.86218	816.96222	11.37997	-626.39990	-681.55139	10.59551	487.75766	725.25360	8.71252	589.29858	37.40382	742.08252	-959.07703	
885	8.840	-749.43970	12.72964	-651.02460	817.82123	10.98165	-626.51422	-680.90790	10.79009	487.82837	726.13397	8.86027	589.72314	38.30399	741.56268	-959.73322	
886	8.850	-748.59680	12.42872	-650.93597	818.57306	10.54410	-626.58423	-680.07025	11.20209	487.56812	726.89661	9.31214	589.84052	39.02261	740.96301	-960.18768	
887	8.860	-747.65704	11.91706	-650.94043	819.35876	10.17482	-626.66571	-679.19141	11.45047	487.43976	727.76904	9.58861	589.77936	39.69793	740.54578	-960.66907	
888	8.870	-746.97125	11.65009	-651.11682	820.10101	9.80328	-626.78821	-678.40143	11.77423	487.39154	728.47925	9.80370	589.43103	40.55710	740.05243	-961.41931	
889	8.880	-746.48895	11.52316	-651.24506	821.04309	9.62601	-626.79761	-677.79004	11.94061	487.32797	729.13831	10.07010	589.38824	41.25920	739.52429	-961.96777	
890	8.890	-745.58167	11.06925	-651.41333	821.82874	9.37726	-626.78516	-676.87952	12.19915	487.26642	729.96228	10.36816	589.39331	42.11385	739.06360	-962.59723	
891	8.900	-744.63202	10.56169	-651.45679	822.58197	8.94756	-626.88379	-676.18799	12.50302	487.14319	730.68781	10.71848	589.26044	42.88995	738.41541	-963.03137	
892	8.910	-743.97418	10.19695	-651.42017	823.26898	8.55058	-627.02386	-675.53949	12.61841	487.11954	731.36951	10.99915	589.02936	43.52368	737.93384	-963.55536	
893	8.920	-743.39111	9.70203	-651.46265	823.93457	8.18167	-627.15485	-674.79474	12.84672	487.06250	732.25861	11.21323	589.08514	61.60543	670.77222	-974.64893	
894	8.930	-742.68427	9.32919	-651.59302	824.61963	7.85873	-627.18237	-674.07483	13.06414	486.89575	732.69202	11.50233	588.93451	44.78650	736.86029	-964.48615	
895	8.940	-742.05817	9.14415	-651.73126	825.24530	7.52957	-627.27252	-673.43298	13.32732	486.80688	733.35846	11.78097	588.96680	45.61592	736.23041	-964.98163	
896	8.950	-741.38928	8.83145	-651.71033	825.88623	7.25949	-627.38538	-672.89001	13.56520	486.69250	734.10754	12.19436	588.89771	46.25787	735.79907	-965.29877	
897	8.960	-740.60211	8.32197	-651.74237	826.52246	6.96642	-627.43713	-672.30347	13.76964	486.63785	734.84418	12.43374	588.77191	46.86946	735.32813	-965.60175	
898	8.970	-740.06750	8.01191	-651.88672	827.14520	6.47737	-627.54779	-671.47430	14.08752	486.50113	735.21417	12.94512	588.97729	47.39689	734.76038	-965.91034	
899	8.980	-739.44159	7.68039	-652.05853	827.67914	6.17547	-627.62787	-671.14362	14.53162	486.41785	735.77899	13.19622	588.78870	48.08901	734.32208	-966.06207	
900	8.990	-739.02527	7.27821	-652.00720	828.31097	5.83120	-627.62274	-670.52679	14.62996	486.34378	736.48151	13.59086	588.67328	48.88128	733.62585	-966.33173	
